<svg width="522" height="86" viewBox="0 0 522 86" fill="none" xmlns="http://www.w3.org/2000/svg">
<path d="M9.66797 9.60938C15.543 3.32812 23.4961 0.1875 33.5273 0.1875C43.5586 0.1875 51.4961 3.32812 57.3398 9.60938C63.2148 15.8906 66.1523 24.4219 66.1523 35.2031C66.1523 45.9531 63.2148 54.4688 57.3398 60.75C51.4648 67.0312 43.5273 70.1719 33.5273 70.1719C23.4961 70.1719 15.543 67.0312 9.66797 60.75C3.82422 54.4688 0.902344 45.9531 0.902344 35.2031C0.902344 24.4219 3.82422 15.8906 9.66797 9.60938ZM46.7461 18.2812C43.4648 14.0938 39.0586 12 33.5273 12C27.9961 12 23.5742 14.0938 20.2617 18.2812C16.9805 22.4688 15.3398 28.1094 15.3398 35.2031C15.3398 42.2656 16.9805 47.8906 20.2617 52.0781C23.543 56.2344 27.9648 58.3125 33.5273 58.3125C39.0586 58.3125 43.4648 56.2344 46.7461 52.0781C50.0273 47.8906 51.668 42.2656 51.668 35.2031C51.668 28.1094 50.0273 22.4688 46.7461 18.2812Z" fill="url(#paint0_linear_236_11)"/>
<path d="M102.025 17.9531C108.4 17.9531 113.415 20.25 117.072 24.8438C120.759 29.4375 122.603 35.7812 122.603 43.875C122.603 51.9375 120.79 58.2812 117.165 62.9062C113.54 67.5 108.572 69.7969 102.259 69.7969C98.6655 69.7969 95.4936 68.9844 92.7436 67.3594C90.0248 65.7031 87.9936 63.4375 86.6498 60.5625H86.3686V85.4062H72.6811V18.75H86.1811V27.5156H86.4623C87.8373 24.5156 89.8686 22.1719 92.5561 20.4844C95.2748 18.7969 98.4311 17.9531 102.025 17.9531ZM97.4311 58.7812C100.837 58.7812 103.54 57.4375 105.54 54.75C107.572 52.0625 108.587 48.4375 108.587 43.875C108.587 39.3125 107.572 35.6875 105.54 33C103.54 30.2812 100.837 28.9219 97.4311 28.9219C94.0873 28.9219 91.3998 30.2969 89.3686 33.0469C87.3373 35.7656 86.3217 39.375 86.3217 43.875C86.3217 48.4062 87.3217 52.0312 89.3217 54.75C91.353 57.4375 94.0561 58.7812 97.4311 58.7812Z" fill="url(#paint1_linear_236_11)"/>
<path d="M150.788 27.7969C147.819 27.7969 145.335 28.8125 143.335 30.8438C141.366 32.875 140.257 35.4688 140.007 38.625H161.335C161.179 35.4062 160.132 32.7969 158.194 30.7969C156.288 28.7969 153.819 27.7969 150.788 27.7969ZM161.522 53.625H174.085C173.335 58.5625 170.866 62.5469 166.679 65.5781C162.522 68.5781 157.35 70.0781 151.163 70.0781C143.444 70.0781 137.382 67.7656 132.975 63.1406C128.6 58.5156 126.413 52.1719 126.413 44.1094C126.413 36.0781 128.6 29.6719 132.975 24.8906C137.35 20.0781 143.241 17.6719 150.647 17.6719C157.929 17.6719 163.725 19.9531 168.038 24.5156C172.35 29.0781 174.507 35.1875 174.507 42.8438V47.0156H139.866V47.8594C139.866 51.4531 140.913 54.375 143.007 56.625C145.132 58.8438 147.929 59.9531 151.397 59.9531C153.897 59.9531 156.054 59.3906 157.866 58.2656C159.679 57.1094 160.897 55.5625 161.522 53.625Z" fill="url(#paint2_linear_236_11)"/>
<path d="M180.145 69V18.75H193.364V27.7031H193.645C195.02 24.5156 197.02 22.0781 199.645 20.3906C202.301 18.6719 205.535 17.8125 209.348 17.8125C214.91 17.8125 219.207 19.4688 222.239 22.7812C225.27 26.0938 226.785 30.7031 226.785 36.6094V69H213.098V39.4688C213.098 36.1562 212.317 33.6094 210.754 31.8281C209.192 30.0469 206.895 29.1562 203.864 29.1562C200.832 29.1562 198.395 30.1719 196.551 32.2031C194.739 34.2344 193.832 36.8906 193.832 40.1719V69H180.145Z" fill="url(#paint3_linear_236_11)"/>
<path d="M311.562 69H297.405V40.5H266.937V69H252.78V1.35938H266.937V28.8281H297.405V1.35938H311.562V69Z" fill="url(#paint4_linear_236_11)"/>
<path d="M361.45 63.1406C356.981 67.7656 350.919 70.0781 343.262 70.0781C335.606 70.0781 329.544 67.75 325.075 63.0938C320.606 58.4375 318.372 52.0156 318.372 43.8281C318.372 35.7344 320.622 29.3594 325.122 24.7031C329.653 20.0156 335.7 17.6719 343.262 17.6719C350.856 17.6719 356.903 20.0156 361.403 24.7031C365.903 29.3594 368.153 35.7344 368.153 43.8281C368.153 52.0469 365.919 58.4844 361.45 63.1406ZM343.262 59.625C346.637 59.625 349.309 58.25 351.278 55.5C353.247 52.75 354.231 48.875 354.231 43.875C354.231 38.9375 353.247 35.0781 351.278 32.2969C349.309 29.5156 346.637 28.125 343.262 28.125C339.887 28.125 337.2 29.5156 335.2 32.2969C333.231 35.0781 332.247 38.9375 332.247 43.875C332.247 48.875 333.231 52.75 335.2 55.5C337.169 58.25 339.856 59.625 343.262 59.625Z" fill="url(#paint5_linear_236_11)"/>
<path d="M420.197 18.75V69H406.979V59.9531H406.697C404.072 66.6094 399.057 69.9375 391.65 69.9375C386.15 69.9375 381.76 68.2656 378.479 64.9219C375.197 61.5469 373.557 56.9531 373.557 51.1406V18.75H387.244V48.2812C387.244 51.625 388.041 54.1719 389.635 55.9219C391.26 57.6719 393.588 58.5469 396.619 58.5469C399.65 58.5469 402.057 57.5469 403.838 55.5469C405.619 53.5469 406.51 50.875 406.51 47.5312V18.75H420.197Z" fill="url(#paint6_linear_236_11)"/>
<path d="M426.82 33.5156C426.82 28.7344 428.742 24.9062 432.585 22.0312C436.429 19.125 441.57 17.6719 448.007 17.6719C454.289 17.6719 459.335 19.1406 463.148 22.0781C466.96 25.0156 468.914 28.9219 469.007 33.7969H456.398C456.242 31.7656 455.398 30.1719 453.867 29.0156C452.367 27.8594 450.351 27.2812 447.82 27.2812C445.445 27.2812 443.539 27.7812 442.101 28.7812C440.695 29.75 439.992 31.0469 439.992 32.6719C439.992 35.1094 442.179 36.8438 446.554 37.875L456.164 39.9375C461.195 41.0625 464.804 42.7031 466.992 44.8594C469.21 46.9844 470.32 49.9219 470.32 53.6719C470.32 58.6094 468.257 62.5781 464.132 65.5781C460.007 68.5781 454.617 70.0781 447.96 70.0781C441.335 70.0781 436.039 68.6094 432.07 65.6719C428.101 62.7344 425.929 58.7812 425.554 53.8125H438.914C439.257 55.9375 440.226 57.5781 441.82 58.7344C443.445 59.8906 445.617 60.4688 448.335 60.4688C450.929 60.4688 452.96 60 454.429 59.0625C455.929 58.0938 456.679 56.7812 456.679 55.125C456.679 53.8438 456.21 52.8281 455.273 52.0781C454.335 51.2969 452.742 50.6406 450.492 50.1094L441.21 48.0469C431.617 45.8594 426.82 41.0156 426.82 33.5156Z" fill="url(#paint7_linear_236_11)"/>
<path d="M498.27 27.7969C495.302 27.7969 492.817 28.8125 490.817 30.8438C488.849 32.875 487.739 35.4688 487.489 38.625H508.817C508.661 35.4062 507.614 32.7969 505.677 30.7969C503.77 28.7969 501.302 27.7969 498.27 27.7969ZM509.005 53.625H521.567C520.817 58.5625 518.349 62.5469 514.161 65.5781C510.005 68.5781 504.833 70.0781 498.645 70.0781C490.927 70.0781 484.864 67.7656 480.458 63.1406C476.083 58.5156 473.895 52.1719 473.895 44.1094C473.895 36.0781 476.083 29.6719 480.458 24.8906C484.833 20.0781 490.724 17.6719 498.13 17.6719C505.411 17.6719 511.208 19.9531 515.521 24.5156C519.833 29.0781 521.989 35.1875 521.989 42.8438V47.0156H487.349V47.8594C487.349 51.4531 488.395 54.375 490.489 56.625C492.614 58.8438 495.411 59.9531 498.88 59.9531C501.38 59.9531 503.536 59.3906 505.349 58.2656C507.161 57.1094 508.38 55.5625 509.005 53.625Z" fill="url(#paint8_linear_236_11)"/>
<defs>
<linearGradient id="paint0_linear_236_11" x1="261" y1="55.4706" x2="476.437" y2="56.9352" gradientUnits="userSpaceOnUse">
<stop stop-color="#3D0F1A"/>
<stop offset="1" stop-color="#D0AA48"/>
</linearGradient>
<linearGradient id="paint1_linear_236_11" x1="261" y1="55.4706" x2="476.437" y2="56.9352" gradientUnits="userSpaceOnUse">
<stop stop-color="#3D0F1A"/>
<stop offset="1" stop-color="#D0AA48"/>
</linearGradient>
<linearGradient id="paint2_linear_236_11" x1="261" y1="55.4706" x2="476.437" y2="56.9352" gradientUnits="userSpaceOnUse">
<stop stop-color="#3D0F1A"/>
<stop offset="1" stop-color="#D0AA48"/>
</linearGradient>
<linearGradient id="paint3_linear_236_11" x1="261" y1="55.4706" x2="476.437" y2="56.9352" gradientUnits="userSpaceOnUse">
<stop stop-color="#3D0F1A"/>
<stop offset="1" stop-color="#D0AA48"/>
</linearGradient>
<linearGradient id="paint4_linear_236_11" x1="261" y1="55.4706" x2="476.437" y2="56.9352" gradientUnits="userSpaceOnUse">
<stop stop-color="#3D0F1A"/>
<stop offset="1" stop-color="#D0AA48"/>
</linearGradient>
<linearGradient id="paint5_linear_236_11" x1="261" y1="55.4706" x2="476.437" y2="56.9352" gradientUnits="userSpaceOnUse">
<stop stop-color="#3D0F1A"/>
<stop offset="1" stop-color="#D0AA48"/>
</linearGradient>
<linearGradient id="paint6_linear_236_11" x1="261" y1="55.4706" x2="476.437" y2="56.9352" gradientUnits="userSpaceOnUse">
<stop stop-color="#3D0F1A"/>
<stop offset="1" stop-color="#D0AA48"/>
</linearGradient>
<linearGradient id="paint7_linear_236_11" x1="261" y1="55.4706" x2="476.437" y2="56.9352" gradientUnits="userSpaceOnUse">
<stop stop-color="#3D0F1A"/>
<stop offset="1" stop-color="#D0AA48"/>
</linearGradient>
<linearGradient id="paint8_linear_236_11" x1="261" y1="55.4706" x2="476.437" y2="56.9352" gradientUnits="userSpaceOnUse">
<stop stop-color="#3D0F1A"/>
<stop offset="1" stop-color="#D0AA48"/>
</linearGradient>
</defs>
</svg>
