<svg width="32" height="36" viewBox="0 0 32 36" fill="none" xmlns="http://www.w3.org/2000/svg">
<path d="M7.98429 28.2827C6.28828 27.0662 4.88719 25.4624 3.9113 23.6034C2.93572 21.7442 2.38425 19.632 2.38379 17.3822C2.38425 13.6768 3.88236 10.3331 6.31009 7.90333C8.73984 5.47575 12.0836 3.97748 15.7891 3.97702C19.4949 3.97764 22.8386 5.47559 25.2681 7.90333C27.6958 10.3331 29.1939 13.6768 29.1945 17.3822C29.1941 19.7686 28.5733 22.0007 27.4838 23.9401C26.3945 25.8788 24.8347 27.5211 22.9617 28.7094L24.2386 30.722C26.4447 29.3218 28.2779 27.3917 29.5616 25.1079C30.8455 22.8248 31.5783 20.1843 31.5779 17.3822C31.5785 13.0262 29.8088 9.07124 26.9534 6.21784C24.1 3.36258 20.1452 1.59292 15.7889 1.59338C11.4328 1.59277 7.47785 3.36243 4.62461 6.21784C1.76935 9.07124 -0.000463946 13.0262 2.47974e-07 17.3822C-0.000463946 20.0236 0.6508 22.5214 1.80076 24.7113C2.95088 26.9018 4.5983 28.7869 6.59465 30.2193L7.98413 28.2825L7.98429 28.2827Z" fill="white"/>
<path d="M9.8181 12.9201L14.543 8.26946V20.3544H18.0413V14.0098L22.3119 18.338V31.8035H17.8143V23.5575H14.316V31.8035H9.8181V12.9201ZM25.8102 31.8035V17.1289L18.0413 9.64641V4.95295V0L6.31963 10.8135V31.8033H1.23145V35.0745H30.5351V31.8033H25.8102V31.8035Z" fill="#D0AA48"/>
</svg>
